<svg width="319" height="31" viewBox="0 0 319 31" fill="none" xmlns="http://www.w3.org/2000/svg">
<g clip-path="url(#clip0_113_595)">
<path d="M131.556 18.2835C132.937 24.7927 128.175 28.0332 119.073 26.9342C122.623 28.3995 134.402 32.5135 143.644 26.5679C151.591 21.4676 154.606 20.4532 160.298 20.6223C156.804 17.1282 152.323 17.1 149.618 17.1282C147.787 17.1564 145.645 16.9309 143.701 15.6911C141.08 14.0286 136.543 10.3372 134.853 9.21008C119.017 -1.32861 103.716 0.812944 100.024 2.02461C114.733 2.02461 130.175 11.8025 131.556 18.3117" fill="white"/>
<path d="M149.308 16.3687H149.59C149.59 16.3687 149.844 16.3687 149.957 16.3687C156.466 9.52136 165.229 5.43551 172.358 4.98466C158.917 3.97024 148.04 10.0567 142.884 14.2271C143.306 14.5371 143.729 14.8189 144.124 15.0725C145.504 15.9742 147.223 16.3687 149.308 16.3687Z" fill="white"/>
<path d="M21.0697 27.9204C19.7172 28.6813 18.3083 29.2166 16.843 29.5548C15.3777 29.8647 13.9124 30.0338 12.3908 30.0338C10.6156 30.0338 8.98124 29.7239 7.51597 29.1321C6.0507 28.5404 4.78267 27.695 3.74008 26.5961C2.69748 25.4971 1.88031 24.2291 1.28857 22.7356C0.696822 21.2422 0.415039 19.6078 0.415039 17.8326C0.415039 16.0574 0.696822 14.423 1.28857 12.9578C1.88031 11.4925 2.69748 10.1963 3.74008 9.09734C4.78267 8.02656 6.0507 7.18122 7.51597 6.56129C8.98124 5.94137 10.6156 5.63141 12.3908 5.63141C15.8567 5.63141 18.6182 6.70218 20.7598 8.84373L19.1818 10.4781C18.8436 10.0554 18.3928 9.68908 17.8856 9.32277C17.3784 8.95645 16.8148 8.64649 16.2231 8.39288C15.6313 8.13928 14.9832 7.94203 14.3351 7.80114C13.687 7.66025 13.0389 7.57571 12.3908 7.57571C10.8974 7.57571 9.51663 7.82932 8.30496 8.3647C7.09329 8.90009 6.0507 9.60455 5.20535 10.5344C4.36 11.4643 3.7119 12.5351 3.23287 13.7749C2.75384 15.0148 2.55659 16.3673 2.55659 17.8044C2.55659 19.2415 2.78202 20.5941 3.23287 21.8339C3.68372 23.0738 4.36 24.1727 5.20535 25.0744C6.0507 26.0043 7.09329 26.7088 8.30496 27.2442C9.51663 27.7795 10.8692 28.0332 12.3908 28.0332C13.6307 28.0332 14.8141 27.9204 15.9131 27.7514C17.0121 27.5541 17.9983 27.1878 18.9 26.6806V18.8752H13.3207V16.9027H21.0697V27.9204Z" fill="white"/>
<path d="M27.4375 6.22586H33.524C33.834 6.22586 34.2566 6.22586 34.7639 6.25404C35.2992 6.25404 35.8628 6.33857 36.4827 6.45129C37.1027 6.564 37.7226 6.73307 38.3425 6.98667C38.9624 7.24028 39.5542 7.57842 40.0614 8.02927C40.5686 8.48012 40.9913 9.07187 41.3012 9.77633C41.6394 10.4808 41.7803 11.3261 41.7803 12.3406C41.7803 13.4677 41.583 14.3694 41.2167 15.102C40.8504 15.8347 40.3432 16.3982 39.7796 16.8491C39.216 17.2999 38.5679 17.6381 37.8635 17.8635C37.159 18.0889 36.5109 18.2298 35.8628 18.3143L42.6256 29.473H40.1741L33.6649 18.4552H29.6354V29.473H27.4657V6.22586H27.4375ZM29.6072 16.4546H34.2003C35.3274 16.4546 36.2573 16.3137 36.9618 16.0319C37.6662 15.7501 38.2298 15.412 38.6243 14.9893C39.0188 14.5666 39.2724 14.1158 39.4133 13.6368C39.5542 13.1577 39.6387 12.7069 39.6387 12.3124C39.6387 11.9179 39.5542 11.467 39.4133 10.988C39.2724 10.509 38.9906 10.0581 38.6243 9.63543C38.2298 9.21276 37.6662 8.87462 36.9618 8.59284C36.2573 8.31105 35.3274 8.17016 34.2003 8.17016H29.6072V16.4546Z" fill="white"/>
<path d="M63.365 20.5404C63.365 21.7803 63.2241 22.9638 62.9423 24.1191C62.6605 25.2462 62.1815 26.2606 61.5052 27.1342C60.8289 28.0077 59.9554 28.7121 58.8846 29.2193C57.8139 29.7266 56.4895 30.0083 54.9115 30.0083C53.3335 30.0083 52.0091 29.7547 50.9384 29.2193C49.8676 28.684 48.9941 28.0077 48.3178 27.1342C47.6415 26.2606 47.1625 25.2462 46.8807 24.1191C46.5989 22.9919 46.458 21.7803 46.458 20.5404V6.22586H48.6277V20.005C48.6277 20.8504 48.7123 21.7239 48.8532 22.6538C48.9941 23.5837 49.304 24.4572 49.7549 25.2744C50.2057 26.0916 50.8256 26.7397 51.671 27.275C52.5163 27.8104 53.5871 28.064 54.9397 28.064C56.2922 28.064 57.3912 27.8104 58.2084 27.275C59.0255 26.7397 59.6736 26.0916 60.1245 25.2744C60.5753 24.4572 60.8853 23.5837 61.0262 22.6538C61.1671 21.7239 61.2516 20.8222 61.2516 20.005V6.22586H63.4213V20.5686L63.365 20.5404Z" fill="white"/>
<path d="M69.3124 6.22586H75.9906C76.8078 6.22586 77.6531 6.3104 78.5267 6.50764C79.4002 6.70489 80.2174 7.01485 80.95 7.46571C81.6826 7.91656 82.2744 8.56466 82.7534 9.35365C83.2324 10.1426 83.4579 11.1571 83.4579 12.3405C83.4579 13.3831 83.2606 14.2849 82.8943 15.0738C82.4998 15.8347 81.9926 16.4546 81.3445 16.9618C80.6964 17.469 79.9638 17.8353 79.1184 18.0607C78.2731 18.3143 77.3995 18.4271 76.4696 18.4271H71.4539V29.4448H69.2842V6.22586H69.3124ZM71.4821 16.4546H76.4133C77.0332 16.4546 77.625 16.37 78.2167 16.2292C78.8084 16.0883 79.3438 15.8628 79.7947 15.5529C80.2455 15.2429 80.64 14.8202 80.9218 14.2849C81.2036 13.7495 81.3445 13.1014 81.3445 12.3405C81.3445 11.5797 81.2036 10.9598 80.8936 10.4244C80.5837 9.88904 80.2174 9.46636 79.7383 9.12822C79.2593 8.79009 78.7239 8.53648 78.104 8.39559C77.4841 8.2547 76.8923 8.17016 76.2724 8.17016H71.4821V16.4264V16.4546Z" fill="white"/>
<path d="M86.6123 17.8327C86.6123 16.0574 86.8941 14.4231 87.4858 12.9578C88.0776 11.4926 88.8947 10.1964 89.9373 9.0974C90.9799 8.02663 92.248 7.18128 93.7132 6.56135C95.1785 5.94143 96.8128 5.63147 98.5881 5.63147C100.363 5.63147 101.969 5.94143 103.463 6.56135C104.928 7.18128 106.196 8.02663 107.239 9.0974C108.281 10.1682 109.099 11.4644 109.69 12.9578C110.282 14.4513 110.564 16.0856 110.564 17.8327C110.564 19.5797 110.282 21.2422 109.69 22.7357C109.099 24.2291 108.281 25.5253 107.239 26.5961C106.196 27.6669 104.928 28.5122 103.463 29.1322C101.998 29.7521 100.363 30.0339 98.5881 30.0339C96.8128 30.0339 95.1785 29.7239 93.7132 29.1322C92.248 28.5404 90.9799 27.6951 89.9373 26.5961C88.8947 25.4972 88.0776 24.2291 87.4858 22.7357C86.8941 21.2422 86.6123 19.6079 86.6123 17.8327ZM88.782 17.8327C88.782 19.2698 89.0075 20.6223 89.4583 21.8622C89.9092 23.102 90.5854 24.201 91.4308 25.1027C92.2761 26.0044 93.3187 26.737 94.5304 27.2724C95.7421 27.8078 97.0946 28.0614 98.6163 28.0614C100.138 28.0614 101.49 27.8078 102.702 27.2724C103.914 26.737 104.956 26.0326 105.802 25.1027C106.647 24.1728 107.295 23.102 107.774 21.8622C108.225 20.6223 108.45 19.2698 108.45 17.8327C108.45 16.3956 108.225 15.043 107.774 13.8032C107.323 12.5633 106.647 11.4644 105.802 10.5627C104.956 9.63279 103.914 8.92833 102.702 8.39294C101.49 7.85756 100.138 7.60395 98.6163 7.60395C97.0946 7.60395 95.7421 7.85756 94.5304 8.39294C93.3187 8.92833 92.2761 9.63279 91.4308 10.5627C90.5854 11.4926 89.9373 12.5633 89.4583 13.8032C89.0075 15.043 88.782 16.3956 88.782 17.8327Z" fill="white"/>
<path d="M175.88 6.22043H180.557L187.94 23.8037H188.081L195.379 6.22043H200.057V29.4393H196.901V10.3626H196.845L189.011 29.4393H186.926L179.092 10.3626H179.036V29.4393H175.88V6.22043Z" fill="white"/>
<path d="M205.833 6.22043H208.989V29.4393H205.833V6.22043Z" fill="white"/>
<path d="M214.933 6.22043H223.105C224.599 6.22043 225.81 6.41768 226.768 6.81217C227.726 7.20667 228.487 7.74206 229.051 8.36198C229.614 8.9819 230.009 9.68636 230.206 10.4472C230.432 11.208 230.544 11.9688 230.544 12.7014C230.544 13.4341 230.403 14.1667 230.15 14.843C229.896 15.5193 229.502 16.1674 229.023 16.7028C228.544 17.2381 227.924 17.7453 227.219 18.1117C226.515 18.478 225.726 18.7316 224.852 18.8161L231.446 29.4112H227.501L221.584 19.1824H218.061V29.4112H214.905V6.22043H214.933ZM218.089 16.4491H222.232C222.852 16.4491 223.443 16.3928 224.063 16.3083C224.683 16.2237 225.19 16.0265 225.669 15.7729C226.148 15.5193 226.515 15.1248 226.796 14.6457C227.078 14.1667 227.219 13.5186 227.219 12.7296C227.219 11.9406 227.078 11.2925 226.796 10.8135C226.515 10.3345 226.148 9.93996 225.669 9.68636C225.19 9.43275 224.655 9.23551 224.063 9.15097C223.471 9.06644 222.852 9.01008 222.232 9.01008H218.089V16.4773V16.4491Z" fill="white"/>
<path d="M242.269 6.22043H245.115L255.062 29.4393H251.399L249.06 23.691H238.014L235.732 29.4393H232.068L242.297 6.22043H242.269ZM247.905 20.9577L243.565 10.3063H243.509L239.113 20.9577H247.905Z" fill="white"/>
<path d="M258.076 6.22043H262.218L275.011 25.2971H275.068V6.22043H278.224V29.4393H274.222L261.288 10.3626H261.232V29.4393H258.076V6.22043Z" fill="white"/>
<path d="M289.016 9.17915H281.549V6.22043H299.639V9.17915H292.172V29.4393H289.016V9.17915Z" fill="white"/>
<path d="M302.993 6.22043H317.984V9.17915H306.149V16.111H317.167V19.0697H306.149V26.5088H318.576V29.4675H302.993V6.22043Z" fill="white"/>
</g>
<defs>
<clipPath id="clip0_113_595">
<rect width="318.161" height="29.0518" fill="white" transform="translate(0.415039 0.981262)"/>
</clipPath>
</defs>
</svg>
