<svg width="76" height="77" viewBox="0 0 76 77" fill="none" xmlns="http://www.w3.org/2000/svg">
<g clip-path="url(#clip0_123_137)">
<path d="M53.0147 61.0829L30.0547 38.1229L53.0147 15.1628" stroke="white" stroke-width="13" stroke-miterlimit="10"/>
<path opacity="0.84" d="M22.9854 48.5254C28.7305 48.5254 33.3879 43.8681 33.3879 38.123C33.3879 32.3779 28.7305 27.7206 22.9854 27.7206C17.2403 27.7206 12.583 32.3779 12.583 38.123C12.583 43.8681 17.2403 48.5254 22.9854 48.5254Z" fill="#CAFF1F"/>
<path opacity="0.84" d="M53.0147 25.5653C58.7598 25.5653 63.4172 20.908 63.4172 15.1629C63.4172 9.41782 58.7598 4.7605 53.0147 4.7605C47.2696 4.7605 42.6123 9.41782 42.6123 15.1629C42.6123 20.908 47.2696 25.5653 53.0147 25.5653Z" fill="#CAFF1F"/>
<path opacity="0.84" d="M53.0147 71.4854C58.7598 71.4854 63.4172 66.8281 63.4172 61.083C63.4172 55.3379 58.7598 50.6805 53.0147 50.6805C47.2696 50.6805 42.6123 55.3379 42.6123 61.083C42.6123 66.8281 47.2696 71.4854 53.0147 71.4854Z" fill="#CAFF1F"/>
</g>
<defs>
<clipPath id="clip0_123_137">
<rect width="50.834" height="66.725" fill="white" transform="translate(12.583 4.7605)"/>
</clipPath>
</defs>
</svg>
