<svg width="140" height="35" viewBox="0 0 140 35" fill="none" xmlns="http://www.w3.org/2000/svg">
<g clip-path="url(#clip0_113_586)">
<path d="M11.8548 10.0095C11.9765 10.3016 12.1712 10.5693 12.3902 10.7883C12.6093 11.0073 12.8769 11.1777 13.169 11.3237C13.461 11.4453 13.8504 11.5184 14.1911 11.5184C14.5318 11.5184 14.8968 11.4453 15.2132 11.3237C15.5052 11.202 15.7729 11.0073 15.9919 10.7883C16.2109 10.5693 16.3813 10.3016 16.5273 10.0095C16.649 9.71751 16.722 9.40114 16.722 9.06044V6.45651H11.6602V9.06044C11.6602 9.40114 11.7332 9.71751 11.8548 10.0095Z" fill="white"/>
<path d="M26.4072 15.39C25.7258 13.8325 24.8011 12.4697 23.6573 11.3259C22.4892 10.1578 21.1264 9.23301 19.5932 8.57594C19.0578 8.33258 18.4738 8.16223 17.841 7.99188V9.11133C17.841 9.59804 17.7437 10.0604 17.549 10.4741C17.4273 10.7175 17.3056 10.9608 17.1353 11.1799C17.549 11.2772 17.9384 11.4232 18.2791 11.5692C19.4472 12.0803 20.445 12.7617 21.2967 13.6378C22.1485 14.5139 22.8542 15.536 23.3653 16.7041C23.8276 17.7505 24.0953 18.87 24.144 20.0381H4.21299C4.26166 18.87 4.50502 17.7505 4.99173 16.7041C5.50279 15.536 6.20852 14.5139 7.06028 13.6378C7.91203 12.7617 8.93413 12.0803 10.1023 11.5692C10.443 11.4232 10.8567 11.3015 11.246 11.1799C11.1 10.9608 10.954 10.7418 10.8323 10.4741C10.6376 10.0361 10.5403 9.59804 10.5403 9.11133V7.99188C9.9319 8.1379 9.3235 8.33258 8.78812 8.57594C7.23063 9.25734 5.86782 10.1821 4.72404 11.3259C3.55592 12.494 2.63116 13.8568 1.9741 15.39C1.29269 16.9475 0.927656 18.6266 0.90332 20.4031V34.1285H4.23732V23.3478H24.1683V34.1285H27.5023V20.4031C27.478 18.6266 27.113 16.9475 26.4316 15.39" fill="white"/>
<path d="M70.2612 21.2536C70.2369 23.0301 69.8718 24.7093 69.1904 26.2668C68.509 27.8243 67.5843 29.1871 66.4162 30.3309C65.248 31.499 63.8852 32.4237 62.3277 33.0808C60.7702 33.7622 58.7504 34.1029 56.9739 34.1029C55.4164 34.1029 53.5425 33.8109 52.0094 33.2268C50.4762 32.6428 49.1134 31.791 47.8966 30.6959C46.6798 29.6008 45.6821 28.2623 44.9033 26.6805C44.1246 25.0987 43.7352 23.2978 43.6865 21.3023V21.2536H47.0205C47.0449 22.9084 47.3856 24.3199 48.0183 25.5367C48.651 26.7535 49.4298 27.7513 50.3789 28.53C51.328 29.3088 52.3744 29.8928 53.4695 30.2822C54.589 30.6472 55.9761 30.8419 56.9495 30.8419C58.2393 30.8419 59.8455 30.5986 61.0136 30.0875C62.1817 29.5765 63.2038 28.8951 64.0556 28.019C64.9073 27.1429 65.6131 26.1208 66.1241 24.9527C66.6352 23.7845 66.9029 22.5434 66.9029 21.2293H70.2369L70.2612 21.2536Z" fill="white"/>
<path d="M29.6933 7.53085C31.4698 7.55519 33.149 7.92023 34.7065 8.60163C36.2639 9.28303 37.6267 10.2078 38.7705 11.3759C39.9386 12.544 40.8634 13.9068 41.5205 15.4643C42.2019 17.0218 42.5426 19.0417 42.5426 20.8182C42.5426 22.3757 42.2506 24.2495 41.6665 25.7827C41.0824 27.3159 40.2307 28.6787 39.1356 29.8954C38.0405 31.1122 36.702 32.11 35.1202 32.8887C33.5383 33.6675 31.7375 34.0569 29.742 34.1055H29.6933V30.7715C31.3481 30.7472 32.7596 30.4065 33.9764 29.7738C35.1932 29.141 36.1909 28.3623 36.9697 27.4132C37.7484 26.4641 38.3325 25.4177 38.7219 24.3225C39.0869 23.2031 39.2816 21.816 39.2816 20.8425C39.2816 19.5527 39.0382 17.9466 38.5272 16.7785C38.0161 15.6103 37.3347 14.5882 36.4586 13.7365C35.5825 12.8847 34.5604 12.179 33.3923 11.6679C32.2242 11.1569 30.9831 10.8892 29.6689 10.8892V7.55519L29.6933 7.53085Z" fill="white"/>
<path d="M84.2543 30.818C85.8605 30.818 87.3937 30.4286 88.8295 29.6499C90.2653 28.8711 91.4334 27.8003 92.2851 26.4375L95.0838 28.214C93.94 30.0392 92.3825 31.475 90.4113 32.5458C88.4401 33.6166 86.3715 34.152 84.1813 34.152C82.1858 34.1276 80.3849 33.7139 78.8031 32.9352C77.2213 32.1564 75.8585 31.183 74.7634 29.9662C73.6439 28.7494 72.8165 27.3866 72.2081 25.8535C71.6241 24.3447 71.332 22.8115 71.332 21.2783C71.332 19.5262 71.6727 17.8713 72.3541 16.3138C73.0355 14.7564 73.9603 13.3935 75.1041 12.2498C76.2722 11.0816 77.635 10.1569 79.2168 9.49982C80.7986 8.81842 82.4535 8.45338 84.2057 8.42905C86.5662 8.42905 88.7808 9.03744 90.825 10.2542C92.8692 11.471 94.4267 13.0772 95.4731 15.0727L96.1789 16.4112L77.5133 28.0924C78.3407 28.8711 79.2898 29.5282 80.3849 30.0149C81.48 30.5259 82.7699 30.7936 84.2787 30.818M74.6904 21.2783C74.6904 22.5925 75.0067 23.9553 75.6638 25.3424L91.7498 15.3161C90.898 14.1966 89.8029 13.3205 88.4401 12.6878C87.1016 12.0551 85.6901 11.7144 84.23 11.7144C82.9159 11.7144 81.6747 11.9821 80.5066 12.4931C79.3385 13.0042 78.3407 13.7099 77.489 14.5617C76.6372 15.4134 75.9558 16.4355 75.4448 17.6036C74.9337 18.7718 74.6904 19.9885 74.6904 21.2783Z" fill="white"/>
<path d="M100.655 21.2551C100.68 22.9099 101.02 24.3214 101.653 25.5382C102.286 26.755 103.065 27.7528 104.014 28.5315C104.963 29.3103 105.985 29.8943 107.104 30.2837C108.224 30.6487 109.246 30.8434 110.219 30.8434V34.1044C108.686 34.1044 107.153 33.8124 105.644 33.2283C104.135 32.6443 102.748 31.7925 101.531 30.6974C100.315 29.6023 99.3169 28.2638 98.5625 26.682C97.7837 25.1002 97.3944 23.2993 97.3457 21.3038V0.886047H100.68V21.2551H100.655Z" fill="white"/>
<path d="M137.963 15.3909C137.281 13.8334 136.357 12.4706 135.213 11.3268C134.045 10.1587 132.682 9.23392 131.149 8.57685C129.591 7.89545 127.572 7.55475 125.819 7.55475C125.819 7.55475 125.771 7.55475 125.746 7.55475C125.746 7.55475 125.698 7.55475 125.673 7.55475C123.921 7.55475 121.901 7.89545 120.344 8.57685C118.786 9.25825 117.423 10.183 116.28 11.3268C115.112 12.4949 114.187 13.8577 113.53 15.3909C112.848 16.9484 112.483 18.6275 112.459 20.404V34.1294H115.793V23.3487H125.771H135.748V34.1294H139.082V20.404C139.058 18.6275 138.693 16.9484 138.012 15.3909M125.795 20.0147H115.842C115.89 18.8466 116.134 17.7271 116.62 16.6807C117.131 15.5126 117.837 14.4904 118.689 13.6144C119.541 12.7383 120.563 12.0569 121.731 11.5458C122.899 11.0348 124.481 10.7914 125.771 10.7914C125.771 10.7914 125.819 10.7914 125.844 10.7914C125.844 10.7914 125.892 10.7914 125.917 10.7914C127.206 10.7914 128.788 11.0348 129.956 11.5458C131.125 12.0569 132.122 12.7383 132.974 13.6144C133.826 14.4904 134.532 15.5126 135.043 16.6807C135.505 17.7271 135.773 18.8466 135.821 20.0147H125.868H125.795Z" fill="white"/>
</g>
<defs>
<clipPath id="clip0_113_586">
<rect width="138.154" height="33.2427" fill="white" transform="translate(0.879883 0.885864)"/>
</clipPath>
</defs>
</svg>
