<svg width="180" height="41" viewBox="0 0 180 41" fill="none" xmlns="http://www.w3.org/2000/svg">
<g clip-path="url(#clip0_172_135)">
<path d="M83.6903 27.1481C85.8769 27.1481 87.0133 25.788 87.3817 23.8734H92.1613C91.6103 28.2363 88.4148 31.3285 83.6835 31.3285C78.4081 31.3285 74.7305 27.644 74.7305 22.0174C74.7305 16.3908 78.4046 12.7131 83.6835 12.7131C88.4148 12.7131 91.6103 15.795 92.1613 20.1682H87.3817C87.0202 18.2537 85.8769 16.8935 83.6903 16.8935C81.0871 16.8935 79.5582 18.7495 79.5582 22.0174C79.5582 25.2852 81.0871 27.1481 83.6903 27.1481Z" fill="white"/>
<path d="M97.994 30.8461H93.1973V7.14478H97.994V30.8427V30.8461Z" fill="white"/>
<path d="M104.248 11.3428H99.3545V7.14868H104.248V11.3428ZM104.199 30.8466H99.4027V13.192H104.199V30.8466Z" fill="white"/>
<path d="M110.405 18.5459C111.19 14.8304 113.305 12.7092 116.345 12.7092C120.55 12.7092 123.48 16.5349 123.48 22.0135C123.48 27.492 120.543 31.3246 116.355 31.3246C113.305 31.3246 111.19 29.1965 110.405 25.4879V36.8961H105.608V13.1913H110.405V18.5459ZM114.561 27.1924C117.244 27.1924 118.652 25.4053 118.652 22.0135C118.652 18.6217 117.251 16.8414 114.561 16.8414C111.872 16.8414 110.405 18.7146 110.405 22.0135C110.405 25.3123 111.917 27.1924 114.561 27.1924Z" fill="white"/>
<path d="M129.316 18.5459C130.101 14.8304 132.216 12.7092 135.256 12.7092C139.461 12.7092 142.391 16.5349 142.391 22.0135C142.391 27.492 139.454 31.3246 135.267 31.3246C132.216 31.3246 130.101 29.1965 129.316 25.4879V36.8961H124.52V13.1913H129.316V18.5459ZM133.473 27.1924C136.155 27.1924 137.563 25.4053 137.563 22.0135C137.563 18.6217 136.162 16.8414 133.473 16.8414C130.783 16.8414 129.316 18.7146 129.316 22.0135C129.316 25.3123 130.828 27.1924 133.473 27.1924Z" fill="white"/>
<path d="M160.456 24.8646C159.495 28.8832 156.276 31.3246 151.985 31.3246C146.661 31.3246 143.066 27.5609 143.066 21.9962C143.066 16.4316 146.62 12.7092 151.889 12.7092C157.157 12.7092 160.535 16.3765 160.535 21.9721C160.535 22.3957 160.518 22.8296 160.47 23.2772H147.698C148.001 25.9183 149.619 27.4886 152.116 27.4886C153.989 27.4886 155.246 26.607 155.952 24.8612H160.452L160.456 24.8646ZM155.931 20.3158C155.532 17.7952 154.161 16.4798 151.913 16.4798C149.664 16.4798 148.142 17.8744 147.75 20.3158H155.931Z" fill="white"/>
<path d="M166.371 30.8463H161.574V13.1917H166.371V19.3245C167.005 15.547 168.812 13.1917 172.273 13.1917H173.323V17.6991H171.474C167.542 17.6991 166.374 19.3004 166.374 22.7817V30.8428L166.371 30.8463Z" fill="white"/>
<g opacity="0.3">
<path d="M174.24 0.640442H73.7357C70.9077 0.640442 68.6152 2.93293 68.6152 5.76087V34.3209C68.6152 37.1489 70.9077 39.4414 73.7357 39.4414H174.24C177.068 39.4414 179.36 37.1489 179.36 34.3209V5.76087C179.36 2.93293 177.068 0.640442 174.24 0.640442Z" fill="white"/>
</g>
<path d="M174.239 40.0819H73.7384C70.5601 40.0819 67.9775 37.4958 67.9775 34.321V5.76091C67.9775 2.5826 70.5636 0 73.7384 0H174.239C177.418 0 180 2.58604 180 5.76091V34.3175C180 37.4958 177.414 40.0784 174.239 40.0784V40.0819ZM73.7384 1.28097C71.266 1.28097 69.2585 3.29195 69.2585 5.76091V34.3175C69.2585 36.7899 71.2695 38.7975 73.7384 38.7975H174.239C176.712 38.7975 178.719 36.7865 178.719 34.3175V5.76091C178.719 3.2885 176.708 1.28097 174.239 1.28097H73.7384Z" fill="white"/>
<path d="M72.1956 8.74609H70.5117V31.3352H72.1956V8.74609Z" fill="white"/>
<path d="M177.683 8.74609H175.999V31.3352H177.683V8.74609Z" fill="white"/>
<path d="M8.56044 12.7086C13.7876 12.7086 16.9418 15.5736 16.9418 20.3703V30.8419H13.6981V26.0934C12.8407 29.344 10.1513 31.3206 6.42894 31.3206C2.70656 31.3206 0 29.1959 0 26.0004C0 22.8049 2.62736 20.7801 6.88692 20.7801H13.7015V20.3703C13.7015 17.4641 11.7009 15.6459 8.50535 15.6459C5.30982 15.6459 3.76715 17.1094 3.76715 19.3373H0.519963C0.519963 15.2775 3.61908 12.7086 8.557 12.7086H8.56044ZM6.85593 23.5005C4.46961 23.5005 3.20586 24.3338 3.20586 25.8868C3.20586 27.5672 4.66245 28.4969 7.30358 28.4969C11.0501 28.4969 13.7015 26.6237 13.7015 23.9894V23.5005H6.85593Z" fill="white"/>
<path d="M31.6835 13.1906H34.9272V30.8452H31.6835V25.7524C30.8261 29.2199 28.426 31.3239 25.134 31.3239C21.1052 31.3239 18.7051 28.1869 18.7051 23.0596V13.1872H21.9488V23.0596C21.9488 26.5994 23.4536 28.3935 26.4804 28.3935C29.7379 28.3935 31.6835 26.3102 31.6835 22.7393V13.1872V13.1906Z" fill="white"/>
<path d="M44.0449 31.3173C40.5291 31.3173 38.6076 29.1479 38.6076 24.9986V15.9113H36.2041V13.1875H38.6076V9.12076H41.8514V13.1875H47.6949V15.9113H41.8514V25.0054C41.8514 27.3436 42.6985 28.4317 44.5889 28.4317C45.3327 28.4317 46.3416 28.263 47.6949 27.9048V30.7078C46.3348 31.1176 45.1158 31.3173 44.0449 31.3173Z" fill="white"/>
<path d="M56.8486 12.7086C62.0207 12.7086 65.4813 16.431 65.4813 22.0129C65.4813 27.5947 62.0207 31.324 56.8486 31.324C51.6765 31.324 48.2158 27.5913 48.2158 22.0129C48.2158 16.4345 51.6765 12.7086 56.8486 12.7086ZM56.8555 28.3936C60.1853 28.3936 62.2376 25.9591 62.2376 22.0129C62.2376 18.0667 60.1887 15.639 56.8555 15.639C53.5222 15.639 51.4596 18.0736 51.4596 22.0129C51.4596 25.9522 53.5187 28.3936 56.8555 28.3936Z" fill="white"/>
</g>
<defs>
<clipPath id="clip0_172_135">
<rect width="180" height="40.0819" fill="white"/>
</clipPath>
</defs>
</svg>
