<svg width="476" height="107" viewBox="0 0 476 107" fill="none" xmlns="http://www.w3.org/2000/svg">
<g clip-path="url(#clip0_172_90)">
<path d="M220.939 72.0428C226.71 72.0428 229.71 68.4526 230.682 63.3991H243.298C241.844 74.9149 233.409 83.0769 220.921 83.0769C206.996 83.0769 197.289 73.3516 197.289 58.5001C197.289 43.6485 206.987 33.9414 220.921 33.9414C233.409 33.9414 241.844 42.0761 243.298 53.6192H230.682C229.728 48.5657 226.71 44.9755 220.939 44.9755C214.067 44.9755 210.032 49.8745 210.032 58.5001C210.032 67.1256 214.067 72.0428 220.939 72.0428Z" fill="white"/>
<path d="M258.693 81.8042H246.032V19.2441H258.693V81.7951V81.8042Z" fill="white"/>
<path d="M275.2 30.3244H262.284V19.2539H275.2V30.3244ZM275.073 81.8049H262.411V35.2052H275.073V81.8049Z" fill="white"/>
<path d="M291.453 49.3376C293.525 39.5305 299.106 33.9316 307.132 33.9316C318.229 33.9316 325.964 44.0296 325.964 58.4903C325.964 72.951 318.211 83.0671 307.159 83.0671C299.106 83.0671 293.525 77.4501 291.453 67.6612V97.7732H278.792V35.2041H291.453V49.3376ZM302.424 72.1603C309.504 72.1603 313.221 67.443 313.221 58.4903C313.221 49.5376 309.522 44.8385 302.424 44.8385C295.325 44.8385 291.453 49.783 291.453 58.4903C291.453 67.1976 295.443 72.1603 302.424 72.1603Z" fill="white"/>
<path d="M341.369 49.3376C343.441 39.5305 349.022 33.9316 357.048 33.9316C368.145 33.9316 375.88 44.0296 375.88 58.4903C375.88 72.951 368.127 83.0671 357.075 83.0671C349.022 83.0671 343.441 77.4501 341.369 67.6612V97.7732H328.708V35.2041H341.369V49.3376ZM352.34 72.1603C359.42 72.1603 363.137 67.443 363.137 58.4903C363.137 49.5376 359.438 44.8385 352.34 44.8385C345.241 44.8385 341.369 49.783 341.369 58.4903C341.369 67.1976 345.359 72.1603 352.34 72.1603Z" fill="white"/>
<path d="M423.563 66.016C421.027 76.623 412.529 83.0671 401.204 83.0671C387.152 83.0671 377.663 73.1328 377.663 58.4449C377.663 43.7569 387.043 33.9316 400.949 33.9316C414.856 33.9316 423.772 43.6115 423.772 58.3812C423.772 59.4992 423.726 60.6444 423.599 61.826H389.888C390.688 68.7973 394.96 72.9419 401.549 72.9419C406.494 72.9419 409.811 70.6151 411.674 66.007H423.554L423.563 66.016ZM411.62 54.0094C410.565 47.3562 406.948 43.8842 401.013 43.8842C395.078 43.8842 391.06 47.5652 390.024 54.0094H411.62Z" fill="white"/>
<path d="M439.176 81.8047H426.515V35.2051H439.176V51.3927C440.848 41.422 445.62 35.2051 454.754 35.2051H457.527V47.1027H452.646C442.266 47.1027 439.185 51.3291 439.185 60.5181V81.7956L439.176 81.8047Z" fill="white"/>
<g opacity="0.3">
<path d="M459.944 2.07617H194.662C187.198 2.07617 181.146 8.12724 181.146 15.5916V90.9763C181.146 98.4407 187.198 104.492 194.662 104.492H459.944C467.409 104.492 473.46 98.4407 473.46 90.9763V15.5916C473.46 8.12724 467.409 2.07617 459.944 2.07617Z" fill="white"/>
</g>
<path d="M459.943 106.181H194.67C186.281 106.181 179.464 99.3556 179.464 90.9755V15.5908C179.464 7.20156 186.29 0.384766 194.67 0.384766H459.943C468.333 0.384766 475.149 7.21065 475.149 15.5908V90.9664C475.149 99.3556 468.323 106.172 459.943 106.172V106.181ZM194.67 3.7659C188.144 3.7659 182.845 9.07391 182.845 15.5908V90.9664C182.845 97.4923 188.153 102.791 194.67 102.791H459.943C466.469 102.791 471.768 97.4833 471.768 90.9664V15.5908C471.768 9.06482 466.46 3.7659 459.943 3.7659H194.67Z" fill="white"/>
<path d="M190.598 23.4707H186.153V83.095H190.598V23.4707Z" fill="white"/>
<path d="M469.032 23.4707H464.588V83.095H469.032V23.4707Z" fill="white"/>
<path d="M22.6316 33.9297C36.4288 33.9297 44.7543 41.4918 44.7543 54.1529V81.7927H36.1924V69.2589C33.9293 77.839 26.8307 83.0561 17.0054 83.0561C7.18014 83.0561 0.0361328 77.4481 0.0361328 69.0135C0.0361328 60.5788 6.97109 55.2345 18.2143 55.2345H36.2015V54.1529C36.2015 46.4817 30.9208 41.6827 22.4861 41.6827C14.0515 41.6827 9.97957 45.5455 9.97957 51.4261H1.40858C1.40858 40.7101 9.58874 33.9297 22.6225 33.9297H22.6316ZM18.1325 62.4148C11.8337 62.4148 8.49805 64.6144 8.49805 68.7135C8.49805 73.149 12.3427 75.6031 19.314 75.6031C29.2029 75.6031 36.2015 70.6586 36.2015 63.7055V62.4148H18.1325Z" fill="white"/>
<path d="M83.6649 35.2005H92.2268V81.8001H83.6649V68.3574C81.4017 77.5101 75.0666 83.0635 66.3775 83.0635C55.7433 83.0635 49.4082 74.7834 49.4082 61.2498V35.1914H57.9701V61.2498C57.9701 70.5933 61.942 75.3287 69.9313 75.3287C78.5296 75.3287 83.6649 69.8298 83.6649 60.4045V35.1914V35.2005Z" fill="white"/>
<path d="M116.293 83.0471C107.014 83.0471 101.942 77.321 101.942 66.3687V42.3826H95.5977V35.1932H101.942V24.459H110.504V35.1932H125.928V42.3826H110.504V66.3868C110.504 72.5583 112.74 75.4305 117.73 75.4305C119.693 75.4305 122.356 74.9851 125.928 74.0398V81.4383C122.338 82.5199 119.12 83.0471 116.293 83.0471Z" fill="white"/>
<path d="M150.089 33.9297C163.741 33.9297 172.875 43.755 172.875 58.4883C172.875 73.2217 163.741 83.0652 150.089 83.0652C136.437 83.0652 127.303 73.2126 127.303 58.4883C127.303 43.7641 136.437 33.9297 150.089 33.9297ZM150.107 75.3304C158.896 75.3304 164.313 68.9044 164.313 58.4883C164.313 48.0723 158.905 41.6645 150.107 41.6645C141.309 41.6645 135.865 48.0905 135.865 58.4883C135.865 68.8862 141.3 75.3304 150.107 75.3304Z" fill="white"/>
</g>
<defs>
<clipPath id="clip0_172_90">
<rect width="475.113" height="105.797" fill="white" transform="translate(0.0361328 0.384766)"/>
</clipPath>
</defs>
</svg>
