<svg width="261" height="111" viewBox="0 0 261 111" fill="none" xmlns="http://www.w3.org/2000/svg">
<g clip-path="url(#clip0_113_532)" filter="url(#filter0_d_113_532)">
<path d="M240.396 11.2402H20.4677C17.6394 11.2402 15.3467 13.533 15.3467 16.3612V85.9376C15.3467 88.7658 17.6394 91.0586 20.4677 91.0586H240.396C243.224 91.0586 245.517 88.7658 245.517 85.9376V16.3612C245.517 13.533 243.224 11.2402 240.396 11.2402Z" fill="#232323" fill-opacity="0.61"/>
<path d="M233.124 25.3101H27.7441V47.5137H233.124V25.3101Z" fill="#373737"/>
<path d="M31.065 25.3101H28.2273C27.9605 25.3101 27.7441 25.5265 27.7441 25.7933V47.0305C27.7441 47.2974 27.9605 47.5137 28.2273 47.5137H31.065C31.3318 47.5137 31.5482 47.2974 31.5482 47.0305V25.7933C31.5482 25.5265 31.3318 25.3101 31.065 25.3101Z" fill="white"/>
<path d="M232.64 25.3101H229.803C229.536 25.3101 229.319 25.5265 229.319 25.7933V47.0305C229.319 47.2974 229.536 47.5137 229.803 47.5137H232.64C232.907 47.5137 233.123 47.2974 233.123 47.0305V25.7933C233.123 25.5265 232.907 25.3101 232.64 25.3101Z" fill="white"/>
<path d="M227.368 56.723H34.3616C32.8049 56.723 31.543 57.985 31.543 59.5417V75.35C31.543 76.9067 32.8049 78.1687 34.3616 78.1687H227.368C228.924 78.1687 230.186 76.9067 230.186 75.35V59.5417C230.186 57.985 228.924 56.723 227.368 56.723Z" fill="#C0E438"/>
<path d="M172.406 55.1214H89.3232V56.7226H172.406V55.1214Z" fill="white"/>
<path d="M172.406 78.1731H89.3232V79.7743H172.406V78.1731Z" fill="white"/>
<path d="M75.1409 55.1212H89.3243V79.7693H75.1409C74.3355 79.7693 73.6865 79.1155 73.6865 78.3149V56.5756C73.6865 55.7702 74.3403 55.1212 75.1409 55.1212Z" fill="white"/>
<path d="M82.1473 61.275H80.8635C80.7091 61.275 80.584 61.4002 80.584 61.5545V73.3409C80.584 73.4952 80.7091 73.6204 80.8635 73.6204H82.1473C82.3016 73.6204 82.4268 73.4952 82.4268 73.3409V61.5545C82.4268 61.4002 82.3016 61.275 82.1473 61.275Z" fill="#CBCBCB"/>
<path d="M186.589 79.7743H172.405V55.1262H186.589C187.394 55.1262 188.043 55.78 188.043 56.5806V78.3199C188.043 79.1253 187.389 79.7743 186.589 79.7743Z" fill="white"/>
<path d="M179.587 73.6204H180.871C181.025 73.6204 181.15 73.4953 181.15 73.3409V61.5546C181.15 61.4002 181.025 61.2751 180.871 61.2751H179.587C179.433 61.2751 179.308 61.4002 179.308 61.5546V73.3409C179.308 73.4953 179.433 73.6204 179.587 73.6204Z" fill="#CBCBCB"/>
<path d="M45.0485 40.587H44.1152V47.5129H45.0485V40.587Z" fill="white"/>
<path d="M66.5084 40.587H65.5752V47.5129H66.5084V40.587Z" fill="white"/>
<path d="M87.9733 40.587H87.04V47.5129H87.9733V40.587Z" fill="white"/>
<path d="M109.433 40.587H108.5V47.5129H109.433V40.587Z" fill="white"/>
<path d="M130.897 40.587H129.964V47.5129H130.897V40.587Z" fill="white"/>
<path d="M152.357 40.587H151.424V47.5129H152.357V40.587Z" fill="white"/>
<path d="M173.822 40.587H172.889V47.5129H173.822V40.587Z" fill="white"/>
<path d="M195.286 40.587H194.353V47.5129H195.286V40.587Z" fill="white"/>
<path d="M216.747 40.587H215.813V47.5129H216.747V40.587Z" fill="white"/>
<path d="M101.105 23.5867L99.8214 24.9463C99.3619 25.4342 98.585 25.4342 98.1255 24.9463L96.8417 23.5867C96.6332 23.3687 96.5195 23.075 96.5195 22.7766V16.1065C96.5195 15.4528 97.0501 14.9222 97.7038 14.9222H100.238C100.892 14.9222 101.423 15.4528 101.423 16.1065V22.7766C101.423 23.0798 101.309 23.3687 101.1 23.5867H101.105Z" fill="white"/>
<path d="M99.523 23.7102H98.4287V87.3839H99.523V23.7102Z" fill="white"/>
</g>
<defs>
<filter id="filter0_d_113_532" x="0.14668" y="0.0402346" width="260.57" height="110.218" filterUnits="userSpaceOnUse" color-interpolation-filters="sRGB">
<feFlood flood-opacity="0" result="BackgroundImageFix"/>
<feColorMatrix in="SourceAlpha" type="matrix" values="0 0 0 0 0 0 0 0 0 0 0 0 0 0 0 0 0 0 127 0" result="hardAlpha"/>
<feOffset dy="4"/>
<feGaussianBlur stdDeviation="7.6"/>
<feComposite in2="hardAlpha" operator="out"/>
<feColorMatrix type="matrix" values="0 0 0 0 0 0 0 0 0 0 0 0 0 0 0 0 0 0 0.25 0"/>
<feBlend mode="normal" in2="BackgroundImageFix" result="effect1_dropShadow_113_532"/>
<feBlend mode="normal" in="SourceGraphic" in2="effect1_dropShadow_113_532" result="shape"/>
</filter>
<clipPath id="clip0_113_532">
<rect width="230.17" height="79.8183" fill="white" transform="translate(15.3467 11.2402)"/>
</clipPath>
</defs>
</svg>
