<svg width="557" height="483" viewBox="0 0 557 483" fill="none" xmlns="http://www.w3.org/2000/svg">
<g clip-path="url(#clip0_143_56)">
<path d="M556.371 140.274V342.203C556.371 419.11 493.934 481.548 417.026 481.548H140.699C63.7917 481.548 1.35411 419.11 1.35411 342.203V140.274C1.35411 63.3665 63.7917 0.928955 140.699 0.928955L417.026 0.928955C493.934 0.928955 556.371 63.3665 556.371 140.274Z" stroke="white" stroke-opacity="0.03" stroke-width="4" stroke-miterlimit="10"/>
<path d="M526.686 342.207V140.274C526.686 79.713 477.591 30.6187 417.03 30.6187L140.703 30.6187C80.1423 30.6187 31.0479 79.713 31.0479 140.274V342.207C31.0479 402.768 80.1423 451.862 140.703 451.862H417.03C477.591 451.862 526.686 402.768 526.686 342.207Z" stroke="white" stroke-opacity="0.1" stroke-width="2" stroke-miterlimit="10"/>
<path d="M496.996 140.274V342.203C496.996 386.337 461.165 422.173 417.026 422.173H140.703C96.569 422.173 60.7336 386.341 60.7336 342.203V140.274C60.7336 96.1393 96.5648 60.3081 140.699 60.3081L417.026 60.3081C461.161 60.3081 496.992 96.1393 496.992 140.274H496.996Z" stroke="white" stroke-opacity="0.19" stroke-width="1.25679" stroke-miterlimit="10"/>
<path d="M467.307 342.203V140.274C467.307 112.505 444.795 89.9939 417.027 89.9939L140.704 89.9939C112.935 89.9939 90.4235 112.505 90.4235 140.274V342.203C90.4235 369.972 112.935 392.483 140.704 392.483H417.027C444.795 392.483 467.307 369.972 467.307 342.203Z" stroke="white" stroke-opacity="0.33" stroke-width="1.25679" stroke-miterlimit="10"/>
<path d="M417.027 119.683H140.7C129.328 119.683 120.109 128.902 120.109 140.274V342.207C120.109 353.579 129.328 362.798 140.7 362.798H417.027C428.399 362.798 437.617 353.579 437.617 342.207V140.274C437.617 128.902 428.399 119.683 417.027 119.683Z" stroke="white" stroke-opacity="0.35" stroke-width="1.25679" stroke-miterlimit="10"/>
<g clip-path="url(#clip1_143_56)">
<path d="M185.849 311.079L178.442 289.898H170.902V319.014H176.547L176.307 297.876L183.689 319.014H187.981L195.345 297.876L195.144 319.014H200.775V289.898H193.228L185.849 311.079Z" fill="white"/>
<path d="M281.673 289.898H276.078V308.499L264.042 289.898H258.633V317.514L248.072 289.898H243.155L232.084 318.31L225.273 307.716C225.8 307.609 226.303 307.465 226.78 307.289C227.257 307.11 227.706 306.898 228.126 306.647C228.546 306.396 228.94 306.112 229.306 305.793C229.672 305.473 230.01 305.118 230.322 304.727C230.634 304.336 230.907 303.923 231.14 303.489C231.373 303.054 231.567 302.599 231.722 302.121C231.876 301.644 231.994 301.145 232.07 300.625C232.145 300.105 232.184 299.563 232.184 298.999C232.184 298.533 232.159 298.081 232.106 297.643C232.052 297.205 231.969 296.785 231.861 296.379C231.754 295.974 231.617 295.583 231.452 295.206C231.287 294.829 231.097 294.47 230.878 294.122C230.663 293.774 230.426 293.444 230.16 293.135C229.895 292.827 229.604 292.536 229.288 292.267C228.973 291.998 228.632 291.746 228.269 291.513C227.903 291.28 227.516 291.068 227.103 290.874C226.913 290.788 226.712 290.706 226.504 290.634C226.295 290.559 226.076 290.49 225.847 290.429C225.617 290.368 225.38 290.311 225.133 290.261C224.885 290.21 224.627 290.164 224.361 290.124C224.092 290.088 223.787 290.056 223.449 290.031C223.109 290.002 222.735 289.981 222.326 289.959C221.917 289.941 221.472 289.927 220.991 289.916C220.51 289.905 219.997 289.902 219.448 289.902H212.525V319.017H218.224V305.498L225.746 319.017H237.758L240.012 312.92H250.814L253.121 319.017H264.246V299.861L276.394 319.017H281.677V289.902L281.673 289.898ZM224.734 302.803C224.436 303.011 224.106 303.191 223.737 303.349C223.371 303.507 222.965 303.636 222.527 303.744C222.089 303.848 221.616 303.93 221.11 303.98C220.604 304.034 220.058 304.059 219.484 304.059H218.221V294.639H220.345C220.876 294.639 221.368 294.66 221.831 294.707C222.29 294.75 222.717 294.818 223.109 294.912C223.5 295.001 223.855 295.116 224.178 295.253C224.497 295.389 224.785 295.55 225.036 295.733C225.283 295.917 225.502 296.128 225.689 296.362C225.875 296.595 226.03 296.857 226.155 297.14C226.281 297.424 226.371 297.736 226.435 298.07C226.496 298.403 226.529 298.766 226.529 299.15C226.529 299.534 226.493 299.925 226.417 300.28C226.342 300.632 226.231 300.962 226.084 301.264C225.936 301.569 225.75 301.849 225.524 302.103C225.301 302.358 225.039 302.592 224.741 302.8L224.734 302.803ZM241.967 307.522L245.488 298.134L248.93 307.522H241.971H241.967Z" fill="white"/>
<path d="M370.448 311.079L363.048 289.898H355.511V317.531L344.935 289.898H340.019L328.718 319.014H334.614L336.875 312.916H347.673L349.97 319.014H361.142L360.902 297.876L368.28 319.014H372.576L379.951 297.876L379.746 319.014H385.37V289.898H377.83L370.44 311.079H370.448ZM338.834 307.519L342.351 298.131L345.793 307.519H338.834Z" fill="white"/>
<path d="M209.693 289.898H203.998V319.014H209.693V289.898Z" fill="white"/>
<path d="M301.106 289.898H284.418V295.009H289.912V319.014H295.593V295.009H301.106V289.898Z" fill="white"/>
<path d="M318.713 295.009V289.898H302.994V319.014H318.713V313.892H308.636V306.693H318.713V301.648H308.636V295.009H318.713Z" fill="white"/>
<path d="M381.54 221.012C381.54 246.237 359.782 267.996 328.362 278.052C363.604 268.965 388.481 246.851 388.481 221.012C388.481 208.373 382.524 196.627 372.317 186.858C372.436 186.593 372.511 186.302 372.511 185.993C372.518 184.895 371.689 183.976 370.62 183.894C370.038 183.851 369.457 183.811 368.872 183.776C358.472 175.037 344.501 168.136 328.355 163.973C342.323 168.441 354.377 175.227 363.464 183.596C363.202 183.596 362.936 183.589 362.674 183.589C359.111 183.589 355.651 183.776 352.299 184.113C342.33 176.996 329.529 171.355 314.944 167.827C327.925 171.725 339.24 177.51 348.036 184.626C345.352 185.003 342.75 185.469 340.234 186.011C330.957 179.674 319.175 175.145 306.033 173.235C318.009 175.572 328.667 180.327 337.004 186.758C333.81 187.544 330.778 188.437 327.914 189.399C315.744 179.796 297.987 173.741 278.203 173.741C265.47 173.741 253.577 176.25 243.471 180.599C240.621 179.552 237.819 178.64 235.08 177.847C240.216 175.615 245.786 173.881 251.678 172.733C245.201 173.673 239.057 175.252 233.376 177.366C229.984 176.437 226.69 175.694 223.521 175.102C229.374 172.026 235.834 169.406 242.768 167.325C234.987 169.209 227.713 171.692 221.106 174.678C216.25 173.874 211.707 173.426 207.555 173.217C214.072 169.309 221.404 166.015 229.353 163.47C220.144 165.846 211.642 169.112 204.11 173.099C203.349 173.085 202.599 173.078 201.87 173.078C191.38 173.078 183.202 174.574 179.05 175.977C178.099 176.3 177.514 177.284 177.671 178.296C177.829 179.311 178.683 180.058 179.685 180.058C183.614 180.065 187.666 180.359 191.782 180.919C177.725 191.606 169.245 205.419 169.245 220.503C169.245 246.342 194.126 268.455 229.364 277.542C197.944 267.486 176.186 245.728 176.186 220.503C176.186 205.803 183.575 192.284 195.96 181.568C199.068 182.125 202.2 182.825 205.33 183.668C191.42 193.627 183.04 206.474 183.04 220.503C183.04 244.597 207.763 265.215 242.778 273.688C211.556 264.314 189.938 244.023 189.938 220.503C189.938 207.031 197.033 194.621 208.962 184.712C211.151 185.38 213.336 186.112 215.508 186.912C203.686 195.669 196.426 207.508 196.426 220.542C196.426 244.109 220.144 263.776 251.686 268.355C223.155 262.792 202.104 243.496 202.104 220.542C202.104 208.104 208.287 196.742 218.486 188.053C221.056 189.076 223.597 190.192 226.101 191.394C217.133 199.322 211.779 209.342 211.779 220.237C211.779 245.918 241.519 266.736 278.206 266.736C314.894 266.736 344.634 245.918 344.634 220.237C344.634 212.532 341.957 205.268 337.216 198.87C339.95 197.323 342.692 195.949 345.416 194.736C351.872 202.354 355.608 211.376 355.608 221.045C355.608 243.998 334.56 263.295 306.026 268.861C337.571 264.278 361.286 244.612 361.286 221.045C361.286 210.713 356.728 201.134 348.951 193.243C350.989 192.435 353.006 191.721 354.991 191.1C363.112 199.86 367.774 210.085 367.774 221.005C367.774 244.526 346.155 264.816 314.933 274.19C349.949 265.717 374.671 245.1 374.671 221.005C374.671 209.525 369.055 198.834 359.391 189.869C362.409 189.119 365.323 188.595 368.09 188.29C376.613 197.825 381.526 209.026 381.526 221.005L381.54 221.012ZM220.334 186.546C219.419 186.169 218.493 185.807 217.564 185.448C215.393 184.615 213.178 183.84 210.935 183.126C209.827 182.771 208.707 182.433 207.584 182.11C204.454 181.213 201.275 180.438 198.063 179.814C196.789 179.566 195.507 179.336 194.223 179.135C189.403 178.378 184.537 177.962 179.703 177.955C183.162 176.788 190.498 175.31 200.392 175.17C201.691 175.152 203.033 175.155 204.418 175.188C208.517 175.281 212.977 175.615 217.722 176.279C218.662 176.411 219.613 176.555 220.575 176.713C223.643 177.219 226.816 177.861 230.078 178.672C230.76 178.841 231.441 179.02 232.131 179.203C234.94 179.954 237.808 180.829 240.729 181.841C250.595 185.265 261.013 190.275 271.52 197.459C274.933 199.792 282.793 206.209 289.385 211.107C291.391 212.597 293.279 213.95 294.887 215.001C299.961 218.321 305.588 218.963 310.44 218.881C311.011 218.873 311.614 218.866 312.242 218.863C319.459 218.845 330.168 219.634 338.644 228.312C323.65 227.842 315.716 230.612 294.747 244.418C270.412 260.442 239.33 249.331 229.97 245.369C253.943 248.344 266.557 239.544 262.879 221.981C260.787 211.994 246.722 199.153 227.849 189.916C225.42 188.728 222.915 187.598 220.342 186.542L220.334 186.546ZM366.342 186.399C363.467 186.786 360.514 187.382 357.514 188.186C356.146 188.552 354.765 188.968 353.383 189.421C351.373 190.077 349.353 190.824 347.329 191.656C346.213 192.116 345.097 192.597 343.981 193.106C341.293 194.334 338.612 195.715 335.956 197.233C327.2 202.247 318.73 208.825 311.37 216.781C311.043 216.785 310.72 216.788 310.408 216.792C310.171 216.795 309.931 216.799 309.69 216.799C304.131 216.799 299.649 215.636 295.988 213.239C295.497 212.916 294.98 212.568 294.438 212.195C294.435 212.195 294.427 212.188 294.424 212.184C294.219 212.04 294.007 211.893 293.792 211.743C293.724 211.692 293.656 211.649 293.588 211.599C293.308 211.402 293.017 211.19 292.726 210.982C300.582 204.465 313.487 196.225 329.816 190.953C332.784 189.995 335.87 189.137 339.057 188.401C340.209 188.136 341.372 187.888 342.549 187.655C345.043 187.167 347.598 186.758 350.207 186.442C351.729 186.255 353.272 186.105 354.829 185.986C358.364 185.717 361.985 185.62 365.692 185.728C367.275 185.774 368.868 185.857 370.48 185.979C369.123 186.065 367.745 186.209 366.349 186.399H366.342Z" fill="white"/>
</g>
</g>
<defs>
<clipPath id="clip0_143_56">
<rect width="556.27" height="481.876" fill="white" transform="translate(0.730469 0.300537)"/>
</clipPath>
<clipPath id="clip1_143_56">
<rect width="219.236" height="155.55" fill="white" transform="translate(169.245 163.463)"/>
</clipPath>
</defs>
</svg>
