<svg width="71" height="72" viewBox="0 0 71 72" fill="none" xmlns="http://www.w3.org/2000/svg">
<path d="M46.8721 0.434113H21.9122C9.89026 0.434113 0.144531 10.1798 0.144531 22.2018V47.1616C0.144531 59.1836 9.89026 68.9293 21.9122 68.9293H46.8721C58.894 68.9293 68.6398 59.1836 68.6398 47.1616V22.2018C68.6398 10.1798 58.894 0.434113 46.8721 0.434113Z" fill="#F7F7F7"/>
<path d="M25.9707 46.9488V22.4389C25.9707 21.0891 27.5583 20.2995 28.6959 21.0975L45.2509 32.6096C46.7196 33.6284 46.7196 35.7424 45.2509 36.7611L28.645 48.2732C27.5328 49.0458 25.9707 48.2732 25.9707 46.9573V46.9488Z" fill="#1E1F24"/>
<path d="M62.2042 71.2723C67.0523 71.2723 70.9826 67.3421 70.9826 62.4939C70.9826 57.6457 67.0523 53.7155 62.2042 53.7155C57.356 53.7155 53.4258 57.6457 53.4258 62.4939C53.4258 67.3421 57.356 71.2723 62.2042 71.2723Z" fill="#C0E438"/>
<path d="M66.4489 61.6275H63.0699V58.2486C63.0699 57.9854 62.8577 57.7732 62.5945 57.7732H61.822C61.5588 57.7732 61.3465 57.9854 61.3465 58.2486V61.6275H57.9676C57.7044 61.6275 57.4922 61.8398 57.4922 62.1029V62.8755C57.4922 63.1387 57.7044 63.3509 57.9676 63.3509H61.3465V66.7299C61.3465 66.993 61.5588 67.2053 61.822 67.2053H62.5945C62.8577 67.2053 63.0699 66.993 63.0699 66.7299V63.3509H66.4489C66.712 63.3509 66.9243 63.1387 66.9243 62.8755V62.1029C66.9243 61.8398 66.712 61.6275 66.4489 61.6275Z" fill="#1E1F24"/>
</svg>
