<svg width="274" height="155" viewBox="0 0 274 155" fill="none" xmlns="http://www.w3.org/2000/svg">
<g clip-path="url(#clip0_132_22)">
<path d="M269.069 26.7101H40.7109C38.0029 26.7101 35.8076 28.9054 35.8076 31.6134V149.776C35.8076 152.484 38.0029 154.679 40.7109 154.679H269.069C271.777 154.679 273.972 152.484 273.972 149.776V31.6134C273.972 28.9054 271.777 26.7101 269.069 26.7101Z" fill="url(#paint0_linear_132_22)"/>
<path d="M254.777 48.8393C257.45 48.8393 259.616 46.6729 259.616 44.0005C259.616 41.3281 257.45 39.1617 254.777 39.1617C252.105 39.1617 249.938 41.3281 249.938 44.0005C249.938 46.6729 252.105 48.8393 254.777 48.8393Z" fill="white"/>
<path d="M238.681 48.8393C241.353 48.8393 243.519 46.6729 243.519 44.0005C243.519 41.3281 241.353 39.1617 238.681 39.1617C236.008 39.1617 233.842 41.3281 233.842 44.0005C233.842 46.6729 236.008 48.8393 238.681 48.8393Z" fill="white"/>
<path d="M222.584 48.8393C225.256 48.8393 227.423 46.6729 227.423 44.0005C227.423 41.3281 225.256 39.1617 222.584 39.1617C219.912 39.1617 217.745 41.3281 217.745 44.0005C217.745 46.6729 219.912 48.8393 222.584 48.8393Z" fill="white"/>
<path d="M273.972 59.9362H35.8076V63.5814H273.972V59.9362Z" fill="white"/>
<path d="M178.938 0H4.1936C1.87754 0 0 1.87754 0 4.1936V119.292C0 121.608 1.87754 123.485 4.1936 123.485H178.938C181.254 123.485 183.131 121.608 183.131 119.292V4.1936C183.131 1.87754 181.254 0 178.938 0Z" fill="url(#paint1_linear_132_22)"/>
<path d="M126.083 102.969H81.3404C79.4162 102.969 77.8564 104.529 77.8564 106.453V151.196C77.8564 153.12 79.4162 154.68 81.3404 154.68H126.083C128.007 154.68 129.567 153.12 129.567 151.196V106.453C129.567 104.529 128.007 102.969 126.083 102.969Z" fill="url(#paint2_linear_132_22)"/>
<path d="M96.2119 117.292V140.324C96.2119 140.679 96.599 140.937 96.9216 140.744L116.535 129.228C116.857 129.034 116.857 128.582 116.535 128.389L96.9216 116.873C96.599 116.679 96.2119 116.905 96.2119 117.292Z" fill="url(#paint3_linear_132_22)"/>
<path d="M154.905 50.1298H154.872C153.109 50.1298 151.679 51.5596 151.679 53.3234V70.1945C151.679 71.9583 153.109 73.3881 154.872 73.3881H154.905C156.668 73.3881 158.098 71.9583 158.098 70.1945V53.3234C158.098 51.5596 156.668 50.1298 154.905 50.1298Z" fill="white"/>
<path d="M28.2581 50.1298H28.2258C26.462 50.1298 25.0322 51.5596 25.0322 53.3234V70.1945C25.0322 71.9583 26.462 73.3881 28.2258 73.3881H28.2581C30.0218 73.3881 31.4517 71.9583 31.4517 70.1945V53.3234C31.4517 51.5596 30.0218 50.1298 28.2581 50.1298Z" fill="white"/>
<path d="M142.258 41.775H142.226C140.462 41.775 139.032 43.2048 139.032 44.9686V78.5497C139.032 80.3135 140.462 81.7433 142.226 81.7433H142.258C144.022 81.7433 145.452 80.3135 145.452 78.5497V44.9686C145.452 43.2048 144.022 41.775 142.258 41.775Z" fill="white"/>
<path d="M104.259 41.775H104.227C102.463 41.775 101.033 43.2048 101.033 44.9686V78.5497C101.033 80.3135 102.463 81.7433 104.227 81.7433H104.259C106.023 81.7433 107.453 80.3135 107.453 78.5497V44.9686C107.453 43.2048 106.023 41.775 104.259 41.775Z" fill="white"/>
<path d="M78.9358 41.775H78.9035C77.1398 41.775 75.71 43.2048 75.71 44.9686V78.5497C75.71 80.3135 77.1398 81.7433 78.9035 81.7433H78.9358C80.6996 81.7433 82.1294 80.3135 82.1294 78.5497V44.9686C82.1294 43.2048 80.6996 41.775 78.9358 41.775Z" fill="white"/>
<path d="M40.9358 41.775H40.9036C39.1398 41.775 37.71 43.2048 37.71 44.9686V78.5497C37.71 80.3135 39.1398 81.7433 40.9036 81.7433H40.9358C42.6996 81.7433 44.1294 80.3135 44.1294 78.5497V44.9686C44.1294 43.2048 42.6996 41.775 40.9358 41.775Z" fill="white"/>
<path d="M116.904 44.3231H116.871C115.108 44.3231 113.678 45.7529 113.678 47.5167V75.9364C113.678 77.7002 115.108 79.13 116.871 79.13H116.904C118.667 79.13 120.097 77.7002 120.097 75.9364V47.5167C120.097 45.7529 118.667 44.3231 116.904 44.3231Z" fill="white"/>
<path d="M66.2581 44.3231H66.2258C64.462 44.3231 63.0322 45.7529 63.0322 47.5167V75.9364C63.0322 77.7002 64.462 79.13 66.2258 79.13H66.2581C68.0218 79.13 69.4517 77.7002 69.4517 75.9364V47.5167C69.4517 45.7529 68.0218 44.3231 66.2581 44.3231Z" fill="white"/>
<path d="M129.582 31.1617H129.55C127.786 31.1617 126.356 32.5916 126.356 34.3553V89.098C126.356 90.8617 127.786 92.2915 129.55 92.2915H129.582C131.346 92.2915 132.776 90.8617 132.776 89.098V34.3553C132.776 32.5916 131.346 31.1617 129.582 31.1617Z" fill="white"/>
<path d="M91.5803 31.1617H91.5481C89.7843 31.1617 88.3545 32.5916 88.3545 34.3553V89.098C88.3545 90.8617 89.7843 92.2915 91.5481 92.2915H91.5803C93.3441 92.2915 94.7739 90.8617 94.7739 89.098V34.3553C94.7739 32.5916 93.3441 31.1617 91.5803 31.1617Z" fill="white"/>
<path d="M53.6126 31.1617H53.5803C51.8165 31.1617 50.3867 32.5916 50.3867 34.3553V89.098C50.3867 90.8617 51.8165 92.2915 53.5803 92.2915H53.6126C55.3763 92.2915 56.8062 90.8617 56.8062 89.098V34.3553C56.8062 32.5916 55.3763 31.1617 53.6126 31.1617Z" fill="white"/>
</g>
<defs>
<linearGradient id="paint0_linear_132_22" x1="161.932" y1="19.0747" x2="151.293" y2="192.035" gradientUnits="userSpaceOnUse">
<stop stop-color="#DBDBDB" stop-opacity="0.941829"/>
<stop offset="1" stop-color="white" stop-opacity="0"/>
</linearGradient>
<linearGradient id="paint1_linear_132_22" x1="93.7431" y1="3.32262" x2="86.0979" y2="210.132" gradientUnits="userSpaceOnUse">
<stop stop-color="#CAFF1F"/>
<stop offset="1" stop-color="white" stop-opacity="0"/>
</linearGradient>
<linearGradient id="paint2_linear_132_22" x1="104.566" y1="104.84" x2="101.437" y2="189.745" gradientUnits="userSpaceOnUse">
<stop stop-color="white"/>
<stop offset="1" stop-color="white" stop-opacity="0"/>
</linearGradient>
<linearGradient id="paint3_linear_132_22" x1="95.7603" y1="128.937" x2="126.728" y2="124.582" gradientUnits="userSpaceOnUse">
<stop stop-color="#CAFF1F"/>
<stop offset="1" stop-color="white" stop-opacity="0"/>
</linearGradient>
<clipPath id="clip0_132_22">
<rect width="273.971" height="154.679" fill="white"/>
</clipPath>
</defs>
</svg>
