<svg width="130" height="190" viewBox="0 0 130 190" fill="none" xmlns="http://www.w3.org/2000/svg">
<g clip-path="url(#clip0_143_14)">
<path d="M115.782 93.9568V96.6895C115.782 124.166 92.8766 146.525 64.6812 146.525C36.4858 146.525 13.5303 124.216 13.5303 96.7392V94.0065H0.15625V96.7392C0.15625 129.383 25.5071 156.263 57.9443 159.592V176.734H54.2514C46.8657 176.734 40.8773 182.696 40.8773 190.05H88.3354C88.3354 182.696 82.347 176.734 74.9613 176.734H71.2684V159.592C103.706 156.313 129.056 129.383 129.056 96.7392V94.0065H115.682L115.782 93.9568Z" fill="url(#paint0_linear_143_14)"/>
<path d="M85.0901 62.9522H106.598V51.574H85.2897C82.595 51.574 80.1996 49.4872 80.1497 46.8041C80.0998 44.0217 82.2956 41.7858 85.0901 41.7858H106.598C106.598 18.6818 87.7849 -0.000244141 64.6298 -0.000244141C41.4747 -0.000244141 22.6611 18.6818 22.6611 41.7858H43.2213C45.9161 41.7858 48.2615 43.8727 48.3613 46.5557C48.4611 49.3381 46.2155 51.6237 43.4209 51.6237H22.6611V63.0018H43.2213C45.9161 63.0018 48.2615 65.0887 48.3613 67.7717C48.4611 70.5541 46.2155 72.8397 43.4209 72.8397H22.6611V84.2178H43.2213C45.9161 84.2178 48.2615 86.3047 48.3613 88.9877C48.4611 91.7701 46.2155 94.0557 43.4209 94.0557H22.6611C22.6611 117.16 41.4747 135.842 64.6298 135.842C87.8348 135.842 106.598 117.16 106.598 94.0557H85.0901C82.3455 94.0557 80.1497 91.8695 80.1497 89.1368C80.1497 86.404 82.3455 84.2178 85.0901 84.2178H106.598V72.8397H85.2897C82.595 72.8397 80.1996 70.7529 80.1497 68.0698C80.0998 65.2874 82.2956 63.0515 85.0901 63.0515V62.9522Z" fill="url(#paint1_linear_143_14)"/>
</g>
<defs>
<linearGradient id="paint0_linear_143_14" x1="62.3857" y1="131.867" x2="50.8093" y2="317.65" gradientUnits="userSpaceOnUse">
<stop stop-color="#DBDBDB"/>
<stop offset="1" stop-color="white" stop-opacity="0"/>
</linearGradient>
<linearGradient id="paint1_linear_143_14" x1="64.0809" y1="85.6587" x2="58.9854" y2="247.389" gradientUnits="userSpaceOnUse">
<stop stop-color="#CAFF1F"/>
<stop offset="1" stop-color="white" stop-opacity="0"/>
</linearGradient>
<clipPath id="clip0_143_14">
<rect width="129" height="190" fill="white" transform="translate(0.15625)"/>
</clipPath>
</defs>
</svg>
