<svg width="314" height="142" viewBox="0 0 314 142" fill="none" xmlns="http://www.w3.org/2000/svg">
<g clip-path="url(#clip0_132_57)">
<path d="M255.979 0.710083H5.38083C2.40908 0.710083 0 3.11916 0 6.09091V135.762C0 138.734 2.40908 141.143 5.38083 141.143H255.979C258.951 141.143 261.36 138.734 261.36 135.762V6.09091C261.36 3.11916 258.951 0.710083 255.979 0.710083Z" fill="url(#paint0_linear_132_57)"/>
<path d="M240.295 24.9946C243.228 24.9946 245.605 22.6172 245.605 19.6845C245.605 16.7519 243.228 14.3745 240.295 14.3745C237.363 14.3745 234.985 16.7519 234.985 19.6845C234.985 22.6172 237.363 24.9946 240.295 24.9946Z" fill="white"/>
<path d="M222.632 24.9946C225.565 24.9946 227.942 22.6172 227.942 19.6845C227.942 16.7519 225.565 14.3745 222.632 14.3745C219.7 14.3745 217.322 16.7519 217.322 19.6845C217.322 22.6172 219.7 24.9946 222.632 24.9946Z" fill="white"/>
<path d="M204.966 24.9946C207.899 24.9946 210.276 22.6172 210.276 19.6845C210.276 16.7519 207.899 14.3745 204.966 14.3745C202.034 14.3745 199.656 16.7519 199.656 19.6845C199.656 22.6172 202.034 24.9946 204.966 24.9946Z" fill="white"/>
<path d="M261.36 37.1724H0V41.1726H261.36V37.1724Z" fill="white"/>
<path d="M282.875 65.28H21.4445C17.984 65.28 15.1787 68.0853 15.1787 71.5459V105.211C15.1787 108.672 17.984 111.477 21.4445 111.477H282.875C286.335 111.477 289.141 108.672 289.141 105.211V71.5459C289.141 68.0853 286.335 65.28 282.875 65.28Z" fill="url(#paint1_linear_132_57)"/>
<path d="M29.6221 82.1306V94.6623C29.6221 94.8747 29.8345 94.9809 30.0115 94.8747L40.6669 88.6088C40.6669 88.6088 40.8439 88.2548 40.6669 88.1486L30.0115 81.8828C30.0115 81.8828 29.6221 81.8828 29.6221 82.0952V82.1306Z" fill="white"/>
<path d="M268.644 82.343H55.7475C52.4239 82.343 49.7295 85.0374 49.7295 88.3611C49.7295 91.6847 52.4239 94.3791 55.7475 94.3791H268.644C271.968 94.3791 274.662 91.6847 274.662 88.3611C274.662 85.0374 271.968 82.343 268.644 82.343Z" fill="white"/>
<path d="M165.417 82.343H55.7475C52.4239 82.343 49.7295 85.0374 49.7295 88.3611C49.7295 91.6847 52.4239 94.3791 55.7475 94.3791H165.417C168.741 94.3791 171.435 91.6847 171.435 88.3611C171.435 85.0374 168.741 82.343 165.417 82.343Z" fill="#CAFF1F"/>
</g>
<defs>
<linearGradient id="paint0_linear_132_57" x1="130.68" y1="-28.7382" x2="128.998" y2="123.655" gradientUnits="userSpaceOnUse">
<stop offset="0.132773" stop-color="#DBDBDB"/>
<stop offset="1" stop-color="white" stop-opacity="0"/>
</linearGradient>
<linearGradient id="paint1_linear_132_57" x1="301.141" y1="91.016" x2="-117.926" y2="83.5819" gradientUnits="userSpaceOnUse">
<stop stop-color="#CAFF1F"/>
<stop offset="1" stop-color="white" stop-opacity="0"/>
</linearGradient>
<clipPath id="clip0_132_57">
<rect width="313.292" height="140.433" fill="white" transform="translate(0 0.709961)"/>
</clipPath>
</defs>
</svg>
